<svg width="400" height="103" viewBox="0 0 400 103" fill="none" xmlns="http://www.w3.org/2000/svg">
<g clip-path="url(#clip0_275_6347)">
<path d="M400.001 93.5846H269.375V102.041H400.001V93.5846Z" fill="#FBFF27"/>
<path d="M190.995 75.8789C188.732 75.8789 186.899 75.4935 185.542 74.7C184.162 73.9065 183.189 72.8183 182.6 71.4581C182.012 70.0752 181.718 68.4655 181.718 66.6065V35.8424H194.185V27.2956H181.718V14.5093H171.717V19.0434C171.717 21.5145 171.015 23.5095 169.612 25.0285C168.21 26.5474 166.264 27.2956 163.797 27.2956H161.738V35.8424H171.717V66.9013C171.717 72.5463 173.188 76.899 176.152 80.0049C179.093 83.1108 183.619 84.6524 189.026 84.6524C189.773 84.6524 190.701 84.6071 191.81 84.4937C192.896 84.3804 193.891 84.2443 194.796 84.0176V75.5615C194.185 75.6295 193.507 75.6975 192.783 75.7655C192.058 75.8335 191.47 75.8562 190.972 75.8562L190.995 75.8789Z" fill="#F6EBD7"/>
<path d="M19.2782 75.8788C17.0155 75.8788 15.1827 75.4934 13.8251 74.6999C12.4448 73.9065 11.4719 72.8183 10.8836 71.458C10.2953 70.0751 10.0011 68.4655 10.0011 66.6065V0H0V66.9012C0 72.5462 1.47075 76.899 4.43489 80.0049C7.3764 83.1108 11.9018 84.6524 17.3097 84.6524C18.0563 84.6524 18.9841 84.607 20.0928 84.4937C21.1789 84.3803 22.1745 84.2443 23.0795 84.0176V75.5614C22.4686 75.6294 21.7898 75.6974 21.0657 75.7655C20.3417 75.8335 19.7534 75.8561 19.2556 75.8561L19.2782 75.8788Z" fill="#F6EBD7"/>
<path d="M38.6473 7.09595C34.8686 7.09595 32.0176 9.95246 32.0176 13.7385C32.0176 17.5245 34.8686 20.1769 38.6473 20.1769C42.426 20.1769 45.277 17.4111 45.277 13.7385C45.277 10.0658 42.426 7.09595 38.6473 7.09595Z" fill="#F6EBD7"/>
<path d="M43.6702 27.3635H33.6465V83.5415H43.6702V27.3635Z" fill="#F6EBD7"/>
<path d="M82.7688 26.0713C76.3654 26.0713 71.0933 28.5424 67.473 33.2126V27.3862H57.4492V83.5642H67.473V47.4271C67.473 40.4218 72.202 35.9104 79.5105 35.9104C86.2986 35.9104 90.6883 40.3538 90.6883 47.223V83.5868H100.712V44.2759C100.712 33.3939 93.494 26.094 82.7688 26.094V26.0713Z" fill="#F6EBD7"/>
<path d="M229.935 25.9353C213.169 25.9353 200.543 38.5856 200.543 55.3392C200.543 72.0928 213.191 84.7431 229.935 84.7431C246.679 84.7431 259.215 72.0928 259.215 55.3392C259.215 38.5856 246.634 25.9353 229.935 25.9353ZM229.935 74.904C218.984 74.904 210.725 66.4932 210.725 55.3392C210.725 44.1852 218.984 35.7744 229.935 35.7744C240.887 35.7744 249.055 44.1852 249.055 55.3392C249.055 66.4932 240.842 74.904 229.935 74.904Z" fill="#F6EBD7"/>
<path d="M279.399 44.9106C279.399 39.4243 283.155 35.8876 288.947 35.8876C294.287 35.8876 297.727 39.3336 297.727 44.6839V83.5414H307.75V44.8879C307.75 39.4016 311.506 35.865 317.299 35.865C322.662 35.865 325.965 39.2429 325.965 44.6612V83.5188H335.989V41.714C335.989 32.3283 329.789 26.0259 320.557 26.0259C314.109 26.0259 309.108 28.7464 306.031 33.8926C303.564 28.8824 298.609 26.0259 292.319 26.0259C287.001 26.0259 282.544 27.9302 279.399 31.5122V27.3181H269.375V83.4961H279.399V44.8426V44.9106Z" fill="#F6EBD7"/>
<path d="M397.647 43.0063C396.425 39.7644 394.683 36.8852 392.443 34.3461C390.18 31.8069 387.442 29.7892 384.206 28.293C380.971 26.7967 377.26 26.0486 373.097 26.0486C367.892 26.0486 363.231 27.3181 359.136 29.8573C355.04 32.3964 351.759 35.865 349.338 40.2631C346.895 44.6612 345.695 49.6715 345.695 55.3165C345.695 60.9615 346.917 65.9263 349.338 70.4151C351.782 74.9039 355.131 78.4406 359.407 81.025C363.684 83.6095 368.526 84.9017 373.956 84.9017C377.78 84.9017 381.288 84.2669 384.478 83.0201C387.668 81.7732 390.429 80.0729 392.759 77.9645C395.09 75.8334 396.81 73.4984 397.918 70.9139L389.795 66.7425C388.189 69.463 386.107 71.6847 383.55 73.4303C380.971 75.176 377.826 76.0375 374.07 76.0375C370.653 76.0375 367.508 75.176 364.634 73.4757C361.76 71.7754 359.52 69.3723 357.959 66.2664C356.783 63.954 356.149 61.3695 355.991 58.4904H398.982C399.118 57.5835 399.253 56.6767 399.344 55.7699C399.457 54.863 399.502 54.0016 399.502 53.1627C399.502 49.6715 398.891 46.3162 397.67 43.0743L397.647 43.0063ZM356.194 49.9435C356.488 47.9258 357.009 46.0668 357.823 44.4119C359.317 41.3513 361.421 38.9709 364.136 37.2479C366.852 35.5476 369.838 34.6861 373.097 34.6861C376.355 34.6861 379.274 35.5249 381.853 37.2026C384.433 38.8802 386.379 41.1473 387.691 44.0038C388.528 45.8174 388.913 47.8125 388.935 49.9662H356.194V49.9435Z" fill="#F6EBD7"/>
<path d="M155.154 27.2729H143.682L124.675 50.5103V0H114.516V83.4735H124.675V64.6568L131.961 55.5659L148.298 83.4735H158.525L138.319 48.0392L155.154 27.2729Z" fill="#F6EBD7"/>
</g>
<defs>
<clipPath id="clip0_275_6347">
<rect width="400" height="102.041" fill="white"/>
</clipPath>
</defs>
</svg>
